<?xml version="1.0" encoding="UTF-8" standalone="no"?>
<!-- Created with Inkscape (http://www.inkscape.org/) -->

<svg
   xmlns:dc="http://purl.org/dc/elements/1.1/"
   xmlns:cc="http://creativecommons.org/ns#"
   xmlns:rdf="http://www.w3.org/1999/02/22-rdf-syntax-ns#"
   xmlns:svg="http://www.w3.org/2000/svg"
   xmlns="http://www.w3.org/2000/svg"
   xmlns:xlink="http://www.w3.org/1999/xlink"
   xmlns:sodipodi="http://sodipodi.sourceforge.net/DTD/sodipodi-0.dtd"
   xmlns:inkscape="http://www.inkscape.org/namespaces/inkscape"
   width="603.5777"
   height="341.1701"
   id="svg2"
   sodipodi:version="0.32"
   inkscape:version="0.48.2 r9819"
   sodipodi:docname="BAM_cartoon_sound_effect.svg"
   inkscape:output_extension="org.inkscape.output.svg.inkscape"
   version="1.0">
  <sodipodi:namedview
     id="base"
     pagecolor="#ffffff"
     bordercolor="#666666"
     borderopacity="1.0"
     gridtolerance="10000"
     guidetolerance="10"
     objecttolerance="10"
     inkscape:pageopacity="0.0"
     inkscape:pageshadow="2"
     inkscape:zoom="0.7"
     inkscape:cx="168.46232"
     inkscape:cy="205.38467"
     inkscape:document-units="px"
     inkscape:current-layer="layer1"
     showgrid="false"
     fit-margin-top="0"
     fit-margin-left="0"
     fit-margin-right="0"
     fit-margin-bottom="0"
     inkscape:window-width="893"
     inkscape:window-height="775"
     inkscape:window-x="622"
     inkscape:window-y="0"
     inkscape:window-maximized="0" />
  <defs
     id="defs4">
    <linearGradient
       id="linearGradient3189">
      <stop
         id="stop3191"
         offset="0"
         style="stop-color:#deaa87;stop-opacity:1" />
      <stop
         style="stop-color:#e9c6af;stop-opacity:1"
         offset="0.37861371"
         id="stop3197" />
      <stop
         id="stop3199"
         offset="0.57814974"
         style="stop-color:#deaa87;stop-opacity:1" />
      <stop
         id="stop3193"
         offset="1"
         style="stop-color:#d38d5f;stop-opacity:1" />
    </linearGradient>
    <inkscape:perspective
       id="perspective10"
       inkscape:persp3d-origin="372.04724 : 350.78739 : 1"
       inkscape:vp_z="744.09448 : 526.18109 : 1"
       inkscape:vp_y="0 : 1000 : 0"
       inkscape:vp_x="0 : 526.18109 : 1"
       sodipodi:type="inkscape:persp3d" />
    <radialGradient
       gradientUnits="userSpaceOnUse"
       gradientTransform="matrix(0.03791054,1.3180813,-2.8107668,0.08086092,517.68768,-241.62727)"
       r="472.24124"
       fy="40.794182"
       fx="526.86829"
       cy="40.794182"
       cx="526.86829"
       id="radialGradient3195"
       xlink:href="#linearGradient3189"
       inkscape:collect="always" />
    <filter
       id="filter3746"
       inkscape:collect="always"
       color-interpolation-filters="sRGB">
      <feGaussianBlur
         id="feGaussianBlur3748"
         stdDeviation="3.9064966"
         inkscape:collect="always" />
    </filter>
    <radialGradient
       inkscape:collect="always"
       xlink:href="#linearGradient3189"
       id="radialGradient2412"
       gradientUnits="userSpaceOnUse"
       gradientTransform="matrix(0.02477538,0.8613954,-1.8368985,0.0528444,355.24222,38.879995)"
       cx="526.86829"
       cy="40.794182"
       fx="526.86829"
       fy="40.794182"
       r="472.24124" />
  </defs>
  <metadata
     id="metadata7">
    <rdf:RDF>
      <cc:Work
         rdf:about="">
        <dc:format>image/svg+xml</dc:format>
        <dc:type
           rdf:resource="http://purl.org/dc/dcmitype/StillImage" />
      </cc:Work>
    </rdf:RDF>
  </metadata>
  <g
     id="layer1"
     inkscape:groupmode="layer"
     inkscape:label="Layer 1"
     transform="translate(6.0663849,-358.4073)">
    <g
       id="g3238"
       transform="matrix(0.99150337,0,0,0.99150337,-516.32775,15.519834)">
      <g
         id="g3251">
        <path
           style="opacity:0.87190085;fill:#ffd42a;stroke:none"
           d="m 302.63197,358.83167 c -5.98545,9.60116 -11.19764,22.46922 -18.26606,30.15721 -6.64715,-7.3721 -9.0048,-25.95112 -22.18022,-24.04427 -15.53781,7.75136 -24.71118,25.1775 -38.70668,33.33595 -4.53769,-7.37871 -17.32461,-7.31339 -16.78738,2.93421 -1.75163,6.48214 1.19533,20.1346 -10.08983,13.69302 -10.19388,-1.13189 -24.45558,-11.27668 -32.87893,-3.09723 -2.82882,7.3692 16.73459,17.98556 0.70927,14.71658 -17.02351,-0.69018 -34.26581,-3.59978 -51.24539,-2.08316 -8.97978,6.8851 4.76217,16.26104 8.69813,22.57715 -16.65154,-3.14764 -34.604111,-12.79661 -51.231978,-11.49234 -7.525733,8.60735 8.705641,18.29869 12.699264,26.08192 10.769006,8.97197 -8.946347,5.06316 -14.612856,6.19445 -9.023115,1.52371 -25.957659,-3.08184 -29.312692,7.74307 -1.207513,6.22362 17.038487,8.42566 6.349641,8.39512 -9.319057,1.3988 -29.440907,-5.42272 -30.704427,7.82457 5.37143,10.06889 22.556763,12.87025 28.529891,19.15391 -10.729541,1.6947 -6.663045,14.8882 3.305286,14.18205 16.119733,0.2843 3.332545,3.29864 -5.207317,6.31566 -6.893045,1.37297 -22.469236,8.9687 -11.145161,15.28342 8.736958,3.52924 26.684442,1.63525 30.182505,4.2383 -15.575885,6.11151 -34.835099,6.83 -47.839734,17.27927 -0.921858,11.77007 18.520362,8.36093 26.268378,10.51427 7.65992,0.48283 21.374985,1.04946 7.045479,5.05338 -9.95547,0.76928 -18.331454,17.35112 -3.740193,16.62722 6.549763,0.29329 28.048944,-6.37037 23.484948,-1.14109 -7.568369,9.03911 -24.862984,14.05825 -25.5725,26.65246 10.281779,7.57648 26.361641,0.41903 38.619691,1.14109 5.659712,0.35489 29.515125,-5.17051 17.04833,1.71162 -8.466047,2.6802 -14.279376,17.99472 -0.608873,16.46421 14.496958,-2.05565 31.627318,-7.90134 44.447438,-8.39512 -2.36661,7.86091 -15.66646,17.97647 -7.65435,25.67438 14.04523,-0.79223 24.35096,-14.15107 37.05402,-19.39842 0.0881,9.66682 -11.98707,23.93385 -1.47868,30.56475 21.32269,-6.65348 40.80864,-20.82141 60.71294,-28.85313 1.59185,7.10458 -3.52789,25.3032 9.39397,23.31072 9.82889,-4.86556 19.32895,-15.05613 27.48609,-18.74637 3.76755,7.75592 -2.60663,29.38575 12.52531,25.91889 9.74794,-3.61411 8.00914,-24.38476 20.63465,-15.45277 14.05117,2.8983 28.9239,15.18533 43.2096,11.13296 3.04246,-10.69979 -4.363,-21.77772 -4.69698,-32.6839 18.1962,4.82306 35.46801,12.89023 54.01537,16.30119 11.46658,-1.62846 -5.39125,-19.33716 7.44621,-9.37635 6.98787,4.84418 24.58806,16.37893 26.82442,1.8778 1.96828,-9.81824 0.50045,-19.88923 2.00056,-29.74968 12.54034,0.68978 25.9059,9.45466 37.92384,4.97186 5.93916,-8.03246 -12.36918,-15.64953 -10.87266,-19.39842 18.8996,0.73473 38.99657,9.25571 57.23369,5.5424 3.07293,-8.6252 -5.09557,-17.41601 -7.30643,-25.67437 12.30986,-0.77284 27.77731,6.95275 38.01081,3.17873 5.14153,-10.2275 -10.27419,-19.71952 -13.61809,-29.02333 0.42439,-7.69643 38.70361,3.14911 30.31851,-11.89267 -8.85295,-3.75299 -18.11736,-6.75848 -26.61627,-11.16633 12.9356,-2.70884 27.02899,0.33555 39.40251,-3.58626 4.57716,-12.31517 -40.27862,-15.91834 -20.26663,-21.27306 8.17626,-4.64479 26.88862,-2.03108 27.57306,-13.52999 -7.79683,-9.99191 -26.28483,-4.79152 -34.70553,-7.74307 9.86134,-6.73162 27.17153,-7.04992 32.18307,-18.42036 -5.10885,-11.16989 -23.53039,-5.36809 -33.74874,-8.15059 -4.41302,-1.5212 -27.28882,0.75353 -21.13645,-3.42325 5.87187,-4.66001 23.18212,-7.94147 17.83117,-17.6868 -9.56922,-4.79861 -26.99977,4.91156 -32.531,1.87464 19.53396,-8.92829 10.0999,-21.66625 -8.52751,-14.574 -6.51352,-0.39184 -34.46707,6.05358 -16.69707,-2.94979 9.10139,-1.94566 11.40599,-16.328 -0.43489,-13.77451 -13.66498,1.91629 -29.15293,9.02317 -40.62027,11.00331 5.70302,-8.72761 24.16613,-14.25692 20.70154,-26.00041 -13.24119,-4.71116 -29.38338,8.60836 -40.53326,7.00951 -3.83078,-11.60541 -1.56005,-26.42209 -9.65493,-36.18865 -17.22586,1.73796 -34.07142,18.59093 -49.31839,19.88746 -3.34854,-10.47784 -16.64098,-0.12843 -21.31041,4.15681 -11.97388,-10.60288 -21.22138,-24.8996 -34.79252,-33.33596 l -2.44858,1.24026 -0.76973,0.38987 z"
           id="path3768"
           transform="translate(523.25902,-11.111678)"
           inkscape:connector-curvature="0" />
        <path
           id="path3750"
           d="m 502.13477,618.29533 c 0,0 -5.7204,-1.01533 -13.01951,-2.25315 -3.70626,-0.62852 -7.55507,-1.46168 -12.00029,-2.21553 -4.09006,-0.69362 -8.79905,-1.30896 -12.88903,-2.00256 -4.44515,-0.75383 -7.81658,-1.37393 -11.52258,-2.00242 -7.29786,-1.2376 -12.67395,-2.75957 -12.67395,-2.75957 0,0 2.38177,3.44203 5.78702,7.08182 1.81173,1.9365 3.10141,3.54753 5.16161,5.74962 2.0604,2.20231 5.09329,4.45578 6.90521,6.39248 3.40538,3.63993 6.96221,6.34163 6.96221,6.34163 0,0 -6.19825,-0.70735 -12.8385,-2.05642 -3.53286,-0.71775 -7.57734,-1.65275 -11.59474,-2.46894 -4.01777,-0.81627 -7.77435,-1.32151 -11.30759,-2.03934 -6.64049,-1.34911 -11.29741,-2.71255 -11.29741,-2.71255 0,0 -0.75852,3.13278 -0.95136,7.49809 -0.0951,2.15283 0.13861,4.15908 0.0211,6.81906 -0.10392,2.35256 -0.43448,5.23002 -0.54401,7.70929 -0.10953,2.47929 0.0258,5.13312 -0.0781,7.4857 -0.11751,2.66031 -0.1305,5.23677 -0.2256,7.38978 -0.19284,4.36491 -0.55157,7.08418 -0.55157,7.08418 0,0 -3.57594,-1.77868 -8.22707,-4.85802 -2.47457,-1.63831 -5.51038,-4.23315 -8.32435,-6.09618 -2.81424,-1.86319 -6.4691,-3.51762 -8.94393,-5.15611 -4.65131,-3.07945 -6.3909,-6.09101 -6.3909,-6.09101 0,0 0.38516,3.61061 2.08331,7.19303 0.9921,2.09293 2.02834,3.78877 3.02043,5.8817 1.69818,3.58245 3.16553,7.24722 3.16553,7.24722 0,0 -3.43607,-1.46447 -9.48303,-3.63725 -2.98217,-1.07155 -5.92009,-2.47577 -9.60478,-3.79974 -3.25883,-1.17096 -7.21774,-2.82643 -10.6521,-4.06047 -3.43439,-1.23403 -7.72474,-1.73619 -10.98361,-2.90716 -3.68514,-1.32413 -6.72291,-2.72897 -9.70533,-3.80061 -6.04638,-2.17257 -10.08294,-3.65319 -10.08294,-3.65319 0,0 0.58363,3.21154 1.48772,7.83592 0.45907,2.34811 0.66023,5.31407 1.21084,8.13036 0.50662,2.59126 1.53684,5.02504 2.04344,7.61625 0.55058,2.81625 0.66185,5.75955 1.1209,8.10752 0.90394,4.62357 1.52562,7.68065 1.52562,7.68065 0,0 -3.19627,-1.06487 -9.09207,-3.3515 -2.99368,-1.16109 -6.52616,-2.87431 -10.11675,-4.26689 -3.30371,-1.28131 -6.89637,-2.96251 -10.20001,-4.2438 -3.59053,-1.39256 -6.76498,-2.54587 -9.75847,-3.70687 -5.89479,-2.28623 -10.55174,-3.74107 -10.55174,-3.74107 0,0 -1.92561,2.53416 -4.20947,6.90557 -1.15969,2.21967 -2.53721,5.06578 -3.9281,7.72801 -1.27976,2.44951 -2.56066,5.3218 -3.84041,7.77127 -1.39087,2.66218 -3.31671,4.73241 -4.4763,6.95192 -2.28348,4.37065 -2.86276,7.66995 -2.86276,7.66995 0,0 0.24168,-3.30984 -0.0772,-8.02135 -0.15724,-2.32357 -1.15856,-5.02967 -1.35285,-7.90061 -0.17183,-2.53913 -0.0944,-4.86227 -0.27549,-7.53817 -0.18109,-2.67593 -0.57285,-5.09222 -0.74469,-7.63139 -0.1943,-2.87129 -0.39024,-5.92687 -0.54749,-8.25063 -0.31881,-4.71108 -0.32116,-8.54462 -0.32116,-8.54462 0,0 -3.39889,2.67133 -7.43976,6.10709 -2.05182,1.74459 -4.32609,3.96922 -6.78702,6.06164 -2.26428,1.92523 -4.26258,3.80319 -6.52683,5.72838 -2.4609,2.09239 -5.52427,3.85006 -7.57595,5.59452 -4.04017,3.43517 -6.08417,6.12733 -6.08417,6.12733 0,0 0.11344,-2.26447 -0.0416,-6.06182 -0.0788,-1.92818 -0.66763,-4.2674 -0.76206,-6.58003 -0.0869,-2.12784 -0.88277,-4.89887 -0.96965,-7.02668 -0.0944,-2.31258 1.01108,-4.21515 0.93235,-6.1432 -0.15503,-3.79669 -1.59195,-5.48566 -1.59195,-5.48566 0,0 -1.77814,1.13075 -8.25382,4.7557 -3.19361,1.78772 -8.48583,4.56479 -12.43178,6.77364 -3.4899,1.95357 -7.63809,3.40925 -11.31597,5.46804 -3.6779,2.05881 -8.04944,4.8674 -11.53938,6.82099 -3.9464,2.20912 -5.82124,4.02525 -9.01511,5.81311 -6.47511,3.62462 -11.32297,5.99084 -11.32297,5.99084 0,0 1.1916,-3.75997 2.4476,-8.39814 0.63775,-2.35512 0.58093,-5.04564 1.34585,-7.87033 0.70379,-2.599 1.4734,-4.61741 2.17718,-7.21635 0.76491,-2.82464 2.24258,-5.61361 2.8803,-7.96856 1.25579,-4.63738 1.91843,-8.60422 1.91843,-8.60422 0,0 -3.71485,2.84887 -8.81269,6.42023 -2.51411,1.76128 -5.47568,4.20604 -8.58203,6.38223 -2.74736,1.92469 -5.5192,3.61888 -8.41452,5.64724 -2.89535,2.02838 -5.64329,2.87405 -8.39066,4.79876 -3.10672,2.17647 -6.57196,6.01483 -9.08627,7.77627 -5.09738,3.57103 -8.81382,5.16058 -8.81382,5.16058 0,0 2.47971,-2.48799 4.86066,-6.63214 1.17421,-2.04375 1.79496,-4.20472 3.24579,-6.72994 1.28315,-2.23337 3.11129,-4.87629 4.46357,-7.22995 1.35226,-2.35368 2.72693,-4.70227 4.01009,-6.93566 1.45101,-2.52553 2.56244,-4.52507 3.73674,-6.56901 2.38075,-4.14376 3.61742,-6.43307 3.61742,-6.43307 0,0 -3.54947,0.174 -10.60592,1.80908 -3.48001,0.80637 -8.72068,1.10989 -13.02051,2.10622 -3.80288,0.88119 -7.44502,2.50423 -11.45273,3.43287 -4.00775,0.92865 -7.52305,1.42809 -11.32596,2.30928 -4.300332,0.99646 -8.642072,2.37409 -12.12237,3.18053 -7.055802,1.63494 -11.801275,2.61243 -11.801275,2.61243 0,0 4.083832,-2.64072 9.051219,-6.5281 2.642821,-2.06822 4.756493,-4.61099 7.761805,-6.96288 3.005567,-2.3521 6.784571,-3.96096 9.427691,-6.02941 4.96755,-3.8875 7.97452,-7.22412 7.97452,-7.22412 0,0 -3.89702,0.23542 -11.30059,1.00782 -3.651235,0.38093 -7.357164,1.0416 -11.868523,1.51226 -3.989955,0.41625 -9.410856,0.67703 -13.615728,1.11572 -4.20491,0.43868 -8.161228,1.03559 -12.151218,1.45186 -4.511905,0.47071 -9.352267,0.24797 -13.003789,0.62893 -7.402902,0.77233 -12.571699,1.9012 -12.571699,1.9012 0,0 2.277083,-2.93007 6.677435,-6.54896 2.170132,-1.78473 5.767387,-3.15736 8.448729,-5.36251 2.371451,-1.95031 5.432777,-4.46525 7.931958,-6.5206 2.499217,-2.05537 4.622743,-4.01729 6.994212,-5.96761 2.681665,-2.20542 5.369092,-4.22986 7.539395,-6.01473 4.399961,-3.61857 7.443941,-6.12796 7.443941,-6.12796 0,0 -6.032912,0.53188 -14.30703,1.63828 -4.201323,0.56179 -9.119438,1.47444 -14.158459,2.14823 -4.636373,0.61997 -8.860465,1.43272 -13.496766,2.05267 -5.038929,0.6738 -10.86277,1.55697 -15.063821,2.11872 -8.272704,1.1062 -13.960312,1.19668 -13.960312,1.19668 0,0 5.314175,-1.85415 12.224515,-4.9253 3.508861,-1.55942 7.85763,-3.22352 12.066094,-5.09388 3.872207,-1.72091 7.353435,-3.8391 11.225572,-5.55999 4.208392,-1.87032 8.815547,-2.98272 12.324178,-4.54204 6.909159,-3.07062 11.263355,-5.6811 11.263355,-5.6811 0,0 -5.157346,0.28223 -12.955401,-0.10314 -3.845784,-0.19005 -8.549205,-0.67502 -13.300935,-0.90984 -4.202562,-0.20769 -8.32795,-0.9825 -12.756861,-1.20136 -4.428947,-0.21887 -9.627412,-0.21808 -13.83001,-0.42576 -4.752303,-0.23485 -9.2895385,-0.26719 -13.1356174,-0.45726 -7.7973537,-0.38533 -12.9116155,-0.68055 -12.9116155,-0.68055 0,0 5.5616999,-1.54627 13.0781573,-3.77374 3.6340015,-1.07691 7.3542586,-2.08643 11.9316356,-3.44291 3.953432,-1.17158 8.793738,-2.8383 13.082285,-4.10919 4.123911,-1.22209 8.4805,-1.80434 12.604447,-3.02644 4.289101,-1.27105 7.223091,-2.59741 11.177058,-3.76915 4.577948,-1.35665 10.324163,-3.21412 13.958575,-4.29115 7.516547,-2.22749 12.939581,-3.38965 12.939581,-3.38965 0,0 -6.036627,-0.3559 -13.105173,-0.776 -3.485984,-0.20718 -6.567697,-1.13463 -10.874904,-1.39061 -3.809385,-0.2264 -7.930986,-0.16733 -11.945571,-0.40593 -4.014603,-0.23859 -8.724895,0.35238 -12.534336,0.12597 -4.307706,-0.25601 -8.466688,-1.02312 -11.952966,-1.23032 -7.0679,-0.42005 -11.7586695,-0.78922 -11.7586695,-0.78922 0,0 4.4982975,-1.24659 12.4154905,-3.65035 4.020099,-1.22055 9.700974,-2.80701 14.522629,-4.27093 4.436381,-1.34694 8.569274,-2.98963 13.005566,-4.33655 4.821565,-1.46389 9.307186,-2.75425 13.327016,-3.97473 7.915819,-2.40334 14.128163,-4.10059 14.128163,-4.10059 0,0 -5.268249,-0.0217 -13.424621,0.11 -4.141544,0.0669 -9.544601,0.76902 -14.511921,0.84923 -4.570398,0.0738 -9.455875,-0.54786 -14.0262,-0.47406 -4.96721,0.0802 -9.312241,0.2378 -13.453509,0.30467 -8.154961,0.13168 -13.7277245,0.79914 -13.7277245,0.79914 0,0 4.9402525,-2.98612 12.3629855,-5.24018 3.949168,-1.19925 8.928545,-1.48365 13.419353,-2.84737 4.491238,-1.36384 8.700928,-2.92939 12.650507,-4.12875 7.423018,-2.25414 13.2046,-4.11704 13.2046,-4.11704 0,0 -4.80947,-1.11172 -10.566751,-4.104 -2.923379,-1.51939 -5.840289,-4.1776 -9.346542,-5.99994 -3.226087,-1.67672 -6.64568,-4.44557 -9.871709,-6.12225 -3.506194,-1.8223 -6.104225,-2.17948 -9.027393,-3.69877 -5.756296,-2.99176 -10.4313535,-5.68929 -10.4313535,-5.68929 0,0 5.5072205,0.77416 12.6185875,0.7809 3.610924,0.003 7.333821,-0.41546 11.664702,-0.41136 3.984849,0.004 9.183045,-0.33746 13.16782,-0.33368 4.330808,0.004 7.408574,0.76895 11.01926,0.77237 7.110118,0.007 12.688693,0.20927 12.688693,0.20927 0,0 -5.109086,-2.23192 -11.422605,-4.45454 -3.359026,-1.18251 -6.836399,-2.94962 -10.65612,-4.29432 -3.820099,-1.34482 -8.312487,-2.16229 -11.671873,-3.34493 -6.313746,-2.22269 -10.804233,-4.0314 -10.804233,-4.0314 0,0 5.803194,-0.36605 13.058507,-0.6373 3.57811,-0.13378 6.983214,-0.4556 11.404234,-0.62089 3.910041,-0.14618 8.077153,0.0598 12.197804,-0.0943 4.120704,-0.15406 8.329719,-0.22567 12.239816,-0.37185 4.42155,-0.16531 8.284817,-0.40368 11.863221,-0.53746 7.254655,-0.27123 13.028104,-0.30208 13.028104,-0.30208 0,0 -3.063721,-3.04163 -6.088485,-6.82408 -1.491711,-1.8654 -2.458893,-3.28634 -4.302038,-5.59116 -1.630117,-2.03845 -3.773552,-4.63467 -5.491475,-6.78291 -1.717927,-2.14827 -3.086013,-3.79261 -4.716132,-5.83109 -1.843355,-2.3051 -3.548849,-5.15395 -5.040703,-7.0195 -3.024493,-3.78211 -5.974232,-6.17054 -5.974232,-6.17054 0,0 4.176791,1.23457 10.490075,3.1081 3.113517,0.92397 7.699108,2.0389 11.546085,3.18053 3.402371,1.00968 6.522502,1.82732 10.108143,2.89138 3.58567,1.06408 7.17542,2.18246 10.57783,3.19215 3.84745,1.14177 7.54252,2.40712 10.65631,3.33116 6.31269,1.87336 10.48407,3.21508 10.48407,3.21508 0,0 -2.48716,-2.93536 -5.91791,-6.79576 -1.82528,-2.05387 -3.85702,-4.59587 -5.93264,-6.93144 -2.07583,-2.33579 -3.53473,-4.53036 -5.3602,-6.58446 -3.43089,-3.86054 -6.72891,-6.66657 -6.72891,-6.66657 0,0 4.96069,0.94799 12.06915,1.5666 3.50568,0.30508 7.31207,0.30362 11.64362,0.68056 3.8309,0.33339 7.58752,0.86 11.62479,1.21135 4.03729,0.35134 9.25327,0.30799 13.08421,0.64138 4.33206,0.37699 6.82444,1.04289 10.33041,1.34799 7.10782,0.61857 12.21883,0.86748 12.21883,0.86748 0,0 -1.91107,-2.7708 -5.03104,-6.395 -1.65992,-1.9282 -3.27386,-4.54524 -5.16147,-6.73792 -1.88777,-2.19286 -5.06732,-3.89004 -6.72743,-5.81846 -3.12007,-3.62433 -4.88108,-5.93457 -4.88108,-5.93457 0,0 4.13962,0.52572 10.1316,2.30088 3.04253,0.90138 7.46005,2.90278 11.10923,3.98388 3.3576,0.99471 6.45924,1.21641 9.81679,2.21111 3.6491,1.08107 7.10276,2.13329 10.1451,3.0346 5.99094,1.77487 10.36976,3.09499 10.36976,3.09499 0,0 -0.22389,-3.45138 0.0117,-7.84325 0.11965,-2.23006 0.7617,-4.55297 0.90521,-7.22766 0.13202,-2.46098 0.19379,-5.11212 0.32582,-7.57306 0.14351,-2.67464 -0.028,-5.11701 0.0916,-7.34692 0.23558,-4.39112 0.5709,-7.46017 0.5709,-7.46017 0,0 2.32505,3.1435 5.07979,6.79998 1.60936,2.13619 3.22808,4.50199 4.83746,6.63818 2.75476,3.65651 5.01183,6.15336 5.01183,6.15336 0,0 2.75002,-2.44286 6.72089,-6.62202 1.95832,-2.06104 4.66991,-4.22071 7.08955,-6.76728 2.13999,-2.25225 3.09015,-4.71465 5.34541,-7.08821 2.25528,-2.37359 5.66108,-4.45268 7.80109,-6.70495 2.41994,-2.54687 4.84573,-5.25724 6.8042,-7.31845 3.97052,-4.17879 5.13295,-6.68155 5.13295,-6.68155 0,0 0.99165,1.87794 3.12929,5.6531 1.08541,1.91691 3.63858,4.38012 4.94042,6.67922 1.19782,2.11541 3.50358,4.33685 4.70138,6.45222 1.30182,2.29906 2.0232,4.67955 3.10856,6.59633 2.13725,3.7745 3.29771,6.46278 3.29771,6.46278 0,0 1.47843,-2.68552 3.78412,-6.82475 1.17075,-2.10177 2.56318,-4.44941 3.96735,-6.97024 1.29199,-2.31942 2.70336,-4.9117 3.99534,-7.23107 1.40415,-2.52079 3.63924,-5.41228 4.80992,-7.51392 2.30528,-4.13851 3.40881,-6.9245 3.40881,-6.9245 0,0 2.79426,2.35722 6.07601,5.9143 1.61845,1.75425 3.01207,3.62427 5.01179,5.79177 1.76861,1.91699 3.12668,4.31195 4.99054,6.33219 1.86391,2.02027 3.78413,4.02844 5.55276,5.94545 1.99996,2.16776 3.9338,3.91347 5.55238,5.66786 3.28147,3.55676 5.24985,5.69354 5.24985,5.69354 0,0 3.29267,-1.95659 7.72762,-5.59867 2.25193,-1.84933 5.62506,-4.48295 8.32599,-6.70101 2.48512,-2.04083 3.89165,-3.5609 6.37673,-5.60169 2.70089,-2.21802 5.03682,-4.48544 7.2886,-6.33464 4.4342,-3.64144 9.10004,-6.34707 9.10004,-6.34707 0,0 -2.43525,3.43368 -5.31727,7.87762 -1.53335,2.36435 -3.10206,5.06803 -4.84571,7.75665 -1.74381,2.68887 -3.49548,5.28376 -5.02899,7.64836 -2.88212,4.44411 -5.23378,7.95825 -5.23378,7.95825 0,0 4.26874,-2.24994 10.26568,-5.56959 3.04506,-1.68561 5.34857,-4.04191 9.00076,-6.06361 3.36038,-1.86015 8.02124,-3.86007 11.38155,-5.72019 3.65214,-2.02167 6.27076,-3.57816 9.31561,-5.26366 5.99591,-3.31907 10.59682,-5.79036 10.59682,-5.79036 0,0 -0.75413,3.37768 -0.0114,7.53283 0.3663,2.04919 2.08757,3.87301 2.54017,6.40493 0.40029,2.23932 -0.32066,4.75591 0.10119,7.11583 0.42186,2.35995 2.0054,4.65433 2.40569,6.89366 0.45265,2.53224 0.74901,4.43831 1.11534,6.48768 0.7427,4.15478 2.50769,6.7537 2.50769,6.7537 0,0 4.26074,-1.63421 11.85285,-4.16154 4.03928,-1.34463 8.78828,-2.36932 13.38156,-3.89837 4.59371,-1.52919 9.15637,-3.41038 13.19608,-4.75515 7.59238,-2.52742 11.97664,-4.43273 11.97664,-4.43273 0,0 -1.77443,3.47089 -6.3272,7.83829 -2.31173,2.21763 -5.10705,4.54864 -7.87972,7.20843 -2.55114,2.44726 -4.95408,4.60715 -7.50519,7.05437 -2.77262,2.65975 -5.14408,5.62488 -7.45566,7.84236 -4.55198,4.36665 -7.67206,7.44927 -7.67206,7.44927 0,0 3.91217,-1.51622 11.17726,-3.91442 3.51247,-1.15946 7.87322,-2.53333 12.29753,-3.99379 3.82121,-1.26137 7.93799,-2.6536 12.08312,-4.0219 3.98599,-1.31576 7.93484,-2.62479 11.92086,-3.94057 4.14567,-1.36847 9.16582,-2.36346 12.98755,-3.62501 4.42486,-1.46063 7.55478,-2.87182 11.06764,-4.03141 7.26517,-2.39822 11.92191,-4.43518 11.92191,-4.43518 0,0 -2.33177,2.17368 -7.49015,5.62979 -2.54395,1.70444 -6.34017,3.44523 -9.48341,5.55119 -2.77996,1.86258 -5.65105,4.30438 -8.58074,6.26727 -2.92971,1.96292 -6.0794,4.04017 -8.85939,5.90277 -3.14361,2.10622 -6.27943,4.05868 -8.8236,5.76327 -5.15789,3.45579 -7.58365,5.82777 -7.58365,5.82777 0,0 4.52815,-0.6167 11.6184,-1.44643 3.60019,-0.4213 7.19147,-0.85065 11.50948,-1.35597 3.973,-0.46492 8.17753,-0.92155 12.15046,-1.38647 4.31793,-0.5053 8.17761,-1.06 11.77756,-1.48128 7.08901,-0.82958 12.34811,-1.3565 12.34811,-1.3565 0,0 -3.38786,2.34555 -7.90024,5.40731 -2.40074,1.62896 -5.07724,3.08389 -7.80726,4.93628 -2.73027,1.85256 -5.14445,3.73166 -7.54547,5.3608 -4.51252,3.06188 -8.1494,6.00239 -8.1494,6.00239 0,0 4.70044,-0.46427 11.43425,-1.75015 3.41921,-0.65292 6.39518,-2.06083 10.49614,-2.84393 3.77328,-0.72054 8.73947,-1.8484 12.51268,-2.56893 4.10088,-0.7831 7.93231,-1.32065 11.3513,-1.97353 6.73264,-1.28565 11.72342,-2.19365 11.72342,-2.19365 0,0 -3.72599,1.90246 -8.83783,5.02823 -2.5956,1.58716 -4.5505,4.38728 -7.66364,6.29089 -2.86441,1.75152 -6.09865,3.04415 -8.963,4.79563 -3.11309,1.90359 -6.73974,3.5901 -9.33519,5.17716 -5.11094,3.12523 -9.16052,4.89233 -9.16052,4.89233 0,0 4.0751,0.019 11.63689,0.35704 3.72925,0.16674 9.32492,0.82534 13.93266,1.03135 4.07522,0.18221 8.41249,0.47821 12.7072,0.67022 4.29477,0.19201 8.69013,0.36403 12.7654,0.54622 4.6083,0.20604 9.77346,-0.16265 13.50302,0.004 7.56111,0.33805 10.80937,1.48471 10.80937,1.48471 0,0 -4.0237,2.01695 -10.42932,5.0471 -3.25257,1.5386 -8.36276,2.51396 -12.26384,4.35935 -3.58939,1.69793 -5.85379,4.37954 -9.4431,6.07744 -3.90103,1.84536 -7.37565,3.88834 -10.62801,5.42685 -6.40451,3.02963 -10.84787,3.96727 -10.84787,3.96727 0,0 5.92938,0.97524 14.25827,1.29076 4.22912,0.16021 9.61042,-0.22379 14.68278,-0.0316 4.66707,0.17679 9.08699,0.66825 13.75398,0.84505 5.07227,0.19216 9.8036,-0.66732 14.03246,-0.50712 8.32743,0.31547 13.37524,1.50388 13.37524,1.50388 0,0 -5.21427,1.81581 -13.15329,3.9874 -4.03117,1.10267 -7.4939,2.28577 -12.32883,3.6083 -4.44861,1.21685 -9.91463,1.68735 -14.36317,2.90418 -4.83483,1.32249 -9.4964,3.31986 -13.52732,4.42246 -7.93763,2.17122 -13.40336,3.98962 -13.40336,3.98962 0,0 3.47449,1.10778 8.3112,3.54721 2.45593,1.23867 5.71822,3.07814 8.66382,4.56377 2.71025,1.36693 4.50916,3.33608 7.21937,4.70299 2.94555,1.4856 6.11155,2.06619 8.56732,3.30477 4.83588,2.439 8.3141,3.70767 8.3141,3.70767 0,0 -5.66403,0.72879 -13.61524,0.85893 -4.23034,0.0692 -9.13905,0.5123 -13.94958,0.59104 -4.81097,0.0787 -9.54695,-0.2078 -13.77774,-0.13854 -7.95149,0.13014 -13.43846,0.46503 -13.43846,0.46503 0,0 2.93789,1.75226 8.67336,4.51238 2.9123,1.40149 6.30148,2.21242 9.79444,3.89335 3.21386,1.54663 6.75128,4.05538 9.9651,5.60197 3.49289,1.68091 6.39901,3.12629 9.31111,4.52769 5.73449,2.75964 9.61262,4.64882 9.61262,4.64882 0,0 -4.53524,-0.35507 -11.62685,-0.71938 -3.77299,-0.19383 -9.33315,-0.30282 -13.62362,-0.52323 -4.29087,-0.22043 -7.4763,-0.43291 -11.24969,-0.62676 -7.09187,-0.36432 -12.17987,-0.55447 -12.17987,-0.55447 0,0 2.05949,2.54772 4.60643,6.75829 1.29326,2.13798 2.79591,4.92907 4.34703,7.49336 1.42716,2.35938 2.72022,5.16668 4.14736,7.52602 1.55109,2.56423 3.05854,4.63933 4.35172,6.77718 2.5465,4.20984 4.72398,7.1018 4.72398,7.1018 0,0 -5.11759,-0.62213 -11.28059,-1.61224 -3.27896,-0.52678 -6.66789,-1.24232 -10.39656,-1.84134 -3.729,-0.59907 -7.45906,-1.01594 -10.73835,-1.54276 -6.16322,-0.99015 -11.18592,-1.07981 -11.18592,-1.07981 0,0 2.28836,2.32045 3.967,6.65754 0.8931,2.30749 1.32737,5.02248 2.34296,7.64645 1.01568,2.62422 1.83378,5.19956 2.72698,7.50729 1.6787,4.33725 2.9862,7.70879 2.9862,7.70879 0,0 -0.0825,0.0176 -0.0825,0.0176"
           style="fill:none;stroke:#1a1a1a;stroke-width:3.92113328;stroke-linecap:butt;stroke-linejoin:miter;stroke-miterlimit:4;stroke-opacity:1;stroke-dashoffset:0;marker:none;visibility:visible;display:inline;overflow:visible;enable-background:accumulate"
           transform="translate(523.25902,-11.111678)"
           inkscape:connector-curvature="0" />
        <g
           id="g3231"
           transform="matrix(1.0412753,0,0,1.0412753,-116.75019,-11.744805)"
           style="opacity:0.90909095;fill:#d40000">
          <path
             transform="translate(-37.386148,314.97879)"
             id="path3221"
             d="m 823.20615,137.33967 c -17.27727,1.6539 -33.31619,9.08231 -49.68688,14.39467 -4.93356,4.37744 -2.05019,12.39757 -3.40926,18.37215 -1.51916,26.83677 -4.37359,53.77365 -6.28189,80.59123 1.16261,7.36935 10.20081,4.97501 15.08915,3.5671 22.29987,-5.73905 43.70002,-19.28259 55.46369,-39.45908 4.53584,-7.73065 6.69717,-21.61517 -3.5671,-25.75889 -3.15099,-1.09243 -6.56398,-1.18652 -9.84899,-0.82075 9.97567,-10.85604 21.4145,-24.19084 19.60328,-39.90103 -1.39822,-8.0961 -9.95392,-11.57054 -17.362,-10.9854 z m -12.31124,32.19861 c 2.21859,0.31178 -1.14557,4.17033 -1.54679,5.36643 -2.60714,3.88342 -5.89585,7.12516 -9.34391,10.29093 1.18185,-4.32339 0.78855,-9.81807 3.06202,-13.47922 2.50774,-0.94658 5.09743,-2.03586 7.82868,-2.17814 z m 0.53665,37.15467 c 3.51519,-0.45159 0.49154,3.79681 -0.69448,4.82979 -4.29308,4.15128 -9.63849,6.95147 -14.93132,9.59645 0.51419,-3.44056 0.0275,-7.99496 1.8309,-10.76444 4.42896,-1.69082 9.00955,-3.34469 13.7949,-3.6618 z"
             style="fill:#d40000;stroke:none"
             inkscape:connector-curvature="0" />
          <path
             transform="translate(-37.386148,314.97879)"
             id="path3223"
             d="m 918.41303,127.71165 c -15.51553,2.63136 -31.16272,5.66843 -46.33777,9.51194 -4.6481,4.90427 -4.99562,13.01327 -8.00646,19.16275 -10.21166,27.77662 -21.92488,54.98888 -34.39136,81.84231 -1.5852,6.25947 6.35719,5.97385 10.16618,4.57736 8.37058,-2.14333 17.6395,-2.07807 25.37856,-5.84005 2.78149,-4.54505 0.77056,-13.34273 8.30674,-12.6242 5.57529,-2.06997 -0.25005,7.73863 0.50053,10.60389 -0.89981,6.9733 7.07856,5.08842 11.05414,3.5637 7.94492,-2.73541 17.09816,-2.92838 24.36433,-7.1308 4.03055,-6.85239 1.76397,-15.5435 3.14623,-23.16306 1.42019,-25.69919 5.36581,-51.26994 10.04889,-76.4948 0.13481,-2.12432 -2.16726,-4.24429 -4.23001,-4.00904 z m -35.45004,57.32616 c -1.319,5.14743 -1.58982,11.45026 -3.4724,16.0046 -6.08012,2.09438 0.56709,-7.29638 0.41669,-10.40717 1.63698,-5.25622 3.30062,-10.5075 4.94974,-15.76209 -0.63134,3.38822 -1.26269,6.77643 -1.89403,10.16466 z"
             style="fill:#d40000;stroke:none"
             inkscape:connector-curvature="0" />
          <path
             transform="translate(-37.386148,314.97879)"
             id="path3225"
             d="m 1012.2625,137.08713 c -6.337,2.26376 -14.77725,1.05459 -19.60326,6.02935 -3.48646,9.88331 -6.90239,19.79948 -10.4172,29.67323 1.15002,-10.20848 3.97873,-21.32277 3.59867,-31.1569 -2.49539,-5.89779 -10.21176,-1.3334 -14.93132,-1.35739 -8.50655,2.10901 -17.84547,2.24036 -25.69575,6.02935 -9.34052,31.50568 -20.64745,62.48793 -34.15579,92.49209 -2.73019,3.46453 -1.01626,9.94734 3.94591,8.74413 9.49879,-1.31235 19.45495,-2.15117 28.4321,-5.21658 5.14876,-10.20061 7.69117,-22.16711 11.85246,-33.03451 2.6713,-7.89744 5.35276,-15.79355 8.13963,-23.65232 -2.96012,20.85384 -7.51629,41.62166 -9.69115,62.50319 2.21916,6.59241 10.30517,1.95887 14.96413,1.63194 8.28748,-0.38417 7.33654,-10.84742 10.45311,-16.40967 4.33138,-12.40093 8.59603,-24.83057 12.96856,-37.21356 -1.68789,13.4766 -3.75099,26.93131 -4.8298,40.46924 1.73802,6.86772 9.86598,2.51131 14.595,2.19613 6.6561,-1.77852 14.0533,-2.13406 20.0343,-5.7001 3.4811,-7.09536 0.9739,-15.65853 2.3171,-23.32342 1.3637,-24.43486 5.7762,-48.74204 8.9641,-72.90325 -2.2856,-6.76534 -11.0381,-0.74635 -16.1097,-0.80553 -1.6103,0.33486 -3.2207,0.66972 -4.8311,1.00458 z"
             style="fill:#d40000;stroke:none"
             inkscape:connector-curvature="0" />
          <path
             transform="translate(-37.386148,314.97879)"
             id="path3227"
             d="m 1069.5887,114.86377 c -6.9453,17.5484 -11.6738,36.1516 -17.7382,54.11362 -1.3178,6.32804 -5.271,12.38034 -4.864,18.8699 3.5603,5.66618 11.7547,2.71512 17.3305,3.09359 8.031,0.52355 9.0423,-9.37019 11.806,-14.71034 7.3638,-18.98015 17.7956,-36.62457 27.3689,-54.51667 2.0202,-6.7055 -6.6101,-6.42771 -10.8254,-6.69544 -7.6148,0.0437 -15.727,-1.97477 -23.0778,-0.15466 z"
             style="fill:#d40000;stroke:none"
             inkscape:connector-curvature="0" />
          <path
             transform="translate(-37.386148,314.97879)"
             id="path3229"
             d="m 1055.92,203.18898 c -10.7542,0.5667 -21.458,7.65724 -25.8535,17.48827 -2.4073,7.18586 4.4991,14.24836 11.743,12.4375 11.8926,-0.77916 25.6716,-8.33356 27.3687,-21.08693 0.051,-6.9496 -7.5266,-9.27868 -13.2582,-8.83884 z"
             style="fill:#d40000;stroke:none"
             inkscape:connector-curvature="0" />
        </g>
        <path
           style="font-size:154.5630188px;font-style:normal;font-variant:normal;font-weight:normal;font-stretch:normal;text-align:start;line-height:125%;writing-mode:lr-tb;text-anchor:start;opacity:0.91735535;fill:none;stroke:#000000;stroke-width:3.12382579;stroke-linecap:butt;stroke-linejoin:miter;stroke-miterlimit:4;stroke-opacity:1;font-family:BadaBoom BB;-inkscape-font-specification:BadaBoom BB"
           d="m 646.85702,485.02612 c 3.53428,-1.05539 10.12479,-3.43363 19.77157,-7.13474 8.34005,-3.09943 15.05997,-5.30198 20.15976,-6.60763 2.00391,-0.41818 3.95635,-0.77914 5.85733,-1.08291 14.76007,-2.35763 22.49723,1.02114 23.2115,10.13629 1.16866,12.87195 -6.83179,27.20847 -24.00135,43.00956 11.45581,-2.51715 18.36388,-0.77327 20.72424,5.23163 0.45841,1.3014 0.75356,2.67794 0.88544,4.12959 0.65899,7.25862 -2.69867,15.25698 -10.07296,23.99511 -5.63164,6.69249 -12.7784,12.93969 -21.44028,18.74161 -10.37196,6.95876 -22.60254,11.56341 -36.69174,13.81398 -2.23639,0.35724 -4.47717,0.66608 -6.72234,0.92654 2.55954,-20.53669 4.94682,-47.96785 7.16187,-82.29359 0.70431,-9.73451 1.08996,-17.35632 1.15696,-22.86544 m 23.2626,57.55128 c -0.56064,3.8206 -1.05856,8.95664 -1.49373,15.40812 15.38863,-6.68004 22.84128,-12.68155 22.35803,-18.00454 -0.17579,-1.93558 -2.22051,-2.5908 -6.13415,-1.96569 -3.46642,0.55376 -8.37646,2.07446 -14.73015,4.56211 m 5.69255,-40.37952 c -0.60459,3.33675 -1.15325,6.66447 -1.64597,9.98319 l -1.47825,9.95641 c 7.76734,-5.65897 13.12498,-11.62038 16.07296,-17.88425 0.66846,-1.38309 0.96755,-2.4618 0.8973,-3.23614 -0.14944,-1.64518 -1.67778,-2.23562 -4.58503,-1.77131 -2.23642,0.35732 -5.32343,1.34135 -9.26101,2.9521 M 705.8,577.71397 c 18.12436,-37.76588 33.05116,-74.02733 44.78045,-108.78446 l 51.44384,-10.42195 c -7.16044,30.08896 -11.37064,65.44656 -12.6306,106.07288 l -35.96391,9.24697 3.34622,-18.55761 -11.34956,2.5562 -4.11088,13.16446 -35.51556,6.72351 m 54.54969,-42.33716 10.22653,-56.12434 -0.16812,0.01 -18.35549,57.90946 8.29708,-1.79469 m 28.3602,46.70467 C 805.3442,547.63345 818.4184,512.79989 827.93252,477.5811 l 40.4371,-8.03222 -8.13658,54.38909 17.87078,-50.8289 38.93066,-8.09341 c -6.02876,32.27759 -9.61911,61.2816 -10.77106,87.01215 -0.22875,5.10686 -0.39915,10.1614 -0.51123,15.16362 l -34.70136,7.26493 8.94112,-64.8674 -25.22219,72.70016 -18.59177,3.26229 15.15865,-91.37612 -27.47382,81.79149 -35.15293,6.11513 m 149.30124,-43.8116 c 3.92571,-0.84724 7.40284,-0.67479 10.43129,0.51737 3.58917,1.23896 5.38381,3.52244 5.38381,6.85043 0,4.50262 -2.74803,8.86419 -8.24399,13.08474 -4.26225,3.325 -8.91706,5.51122 -13.96443,6.55862 -4.03786,0.85749 -7.51499,0.78293 -10.43119,-0.22371 -3.47709,-1.24916 -5.21562,-3.53775 -5.21563,-6.86577 10e-6,-4.5026 2.63586,-8.90289 7.90754,-13.20089 4.26215,-3.42288 8.97308,-5.66313 14.1326,-6.72079 m 19.01181,-93.05773 35.16345,1.93347 c -9.30973,15.43327 -16.15174,27.4603 -20.52603,36.08113 -5.94475,11.79849 -11.21641,24.46545 -15.8151,38.00088 l -23.38621,1.25088 24.56389,-77.26636"
           id="text2436"
           inkscape:connector-curvature="0" />
      </g>
    </g>
  </g>
</svg>
